<svg xmlns="http://www.w3.org/2000/svg" width="32" height="23.392" viewBox="0 0 32 23.392">
  <g id="contact" transform="translate(205 -6582)">
    <path id="Path_12" data-name="Path 12" d="M36.716,20.9H13.1L24.908,31.908Z" transform="translate(-213.908 6563.468)" fill="none"/>
    <path id="Path_13" data-name="Path 13" d="M13.5,65.581a1.065,1.065,0,0,0-.672.352l-.48.48a1.162,1.162,0,0,0-.352.832,1.366,1.366,0,0,0,.32.864,1.162,1.162,0,0,0,.832.352h0a1.109,1.109,0,0,0,.832-.352l.48-.48a1.192,1.192,0,0,0-.96-2.048Z" transform="translate(-213.16 6533.091)" fill="#ed2654"/>
    <path id="Path_14" data-name="Path 14" d="M29.984,24.124a1.159,1.159,0,0,0,1.664,0A1.236,1.236,0,0,0,32,23.26V14.684A1.2,1.2,0,0,0,30.816,13.5H1.056A1.184,1.184,0,0,0,0,14.684V35.708a1.2,1.2,0,0,0,1.184,1.184H30.816A1.2,1.2,0,0,0,32,35.708V27.1a1.184,1.184,0,0,0-2.368,0v7.392H2.368V17.436l7.968,7.424-3.3,3.3a1.162,1.162,0,0,0-.352.832,1.366,1.366,0,0,0,.32.864,1.162,1.162,0,0,0,.832.352h0a1.109,1.109,0,0,0,.832-.352l3.36-3.36,3.1,2.912a1.223,1.223,0,0,0,1.632,0l3.1-2.912,6.24,6.24a1.182,1.182,0,0,0,.864.352h0a1.109,1.109,0,0,0,.832-.352,1.208,1.208,0,0,0,.32-.864,1.109,1.109,0,0,0-.352-.832L21.664,24.86,29.6,17.436V23.26A1.194,1.194,0,0,0,29.984,24.124Zm-2.176-8.256L16,26.876,4.192,15.868Z" transform="translate(-205 6568.5)" fill="#ed2654"/>
  </g>
</svg>
