<svg xmlns="http://www.w3.org/2000/svg" width="32" height="32" viewBox="0 0 32 32">
  <g id="profile" transform="translate(205 -6401)">
    <path id="Path_19" data-name="Path 19" d="M37.533,19.6a6.333,6.333,0,1,0,6.333,6.333A6.325,6.325,0,0,0,37.533,19.6Zm0,10.072a3.739,3.739,0,1,1,3.739-3.739A3.752,3.752,0,0,1,37.533,29.672Z" transform="translate(-226.533 6387.16)" fill="#ed2654"/>
    <path id="Path_20" data-name="Path 20" d="M18.5,2.5a16,16,0,1,0,16,16A16.014,16.014,0,0,0,18.5,2.5ZM10.079,28.908A10.581,10.581,0,0,1,18.5,24.9a10.483,10.483,0,0,1,8.421,4.008,13.441,13.441,0,0,1-8.421,3A13.178,13.178,0,0,1,10.079,28.908Zm18.695-1.819A13.107,13.107,0,0,0,18.5,22.34,13.135,13.135,0,0,0,8.226,27.123,13.409,13.409,0,1,1,31.906,18.5,13.309,13.309,0,0,1,28.774,27.089Z" transform="translate(-207.5 6398.5)" fill="#ed2654"/>
  </g>
</svg>
