<svg xmlns="http://www.w3.org/2000/svg" width="32" height="22.588" viewBox="0 0 32 22.588">
  <g id="blog" transform="translate(205 -6637)">
    <path id="Path_29" data-name="Path 29" d="M24.623,92.08c0-.064,0-.127,0-.191v-6.2a3.254,3.254,0,0,0-.935-2.793,3.038,3.038,0,0,0-2.1-.612l-.274,0-.271,0H15.557V80.864a3.127,3.127,0,0,1,.185-1.221,2.231,2.231,0,0,1,1.129-1.169,2.628,2.628,0,0,1,1.081-.165h.418A1.109,1.109,0,0,0,19.478,77.2V73.7a1.129,1.129,0,0,0-1.114-1.114c-.225,0-.454,0-.676-.007h0c-.225,0-.458-.007-.691-.007h0a10.934,10.934,0,0,0-1.582.1,6.816,6.816,0,0,0-4.344,2.606,7.473,7.473,0,0,0-1.519,4.5V87.72c0,.467,0,.942-.006,1.4v.014c-.006.931-.011,1.893.006,2.845a3.178,3.178,0,0,0,3.113,3.174c.189,0,.4,0,.633,0H21c.108,0,.218,0,.325,0s.235,0,.356,0a3.34,3.34,0,0,0,1.505-.281,2.684,2.684,0,0,0,1.436-2.37c0-.143,0-.286,0-.424Zm-11.655.85h-.01a1.2,1.2,0,0,1-.868-.226c-.018-.016-.035-.033-.052-.05-.246-.257-.258-.594-.256-1.123V80.33a7.523,7.523,0,0,1,.146-1.8,4.967,4.967,0,0,1,2.22-3.083,4.485,4.485,0,0,1,1.734-.61,5.589,5.589,0,0,1,.678-.034l.316,0h0l.33,0h.045v1.3a3.987,3.987,0,0,0-.875.174A4.469,4.469,0,0,0,14.049,78.1a6.106,6.106,0,0,0-.721,3.559q0,.164,0,.329V83.4a1.129,1.129,0,0,0,1.114,1.114h7.465a.626.626,0,0,1,.28.039l.02.014.013.009.011.007.019.018.017.016,0,0,0,0,.014.019.017.021.006.011.009.016.014.024.008.02.005.014.011.026c0,.007,0,.015.006.023l0,.017.008.03v0c0,.008,0,.021,0,.032l0,.019c0,.01,0,.02,0,.03v.006c0,.031.005.063.006.1,0,1.219,0,2.451,0,3.643v.073q0,.876,0,1.754v1.98c0,.156-.08.415-.293.451a.9.9,0,0,1-.113.005l-.116,0-.134,0h-8.77Z" transform="translate(-214.537 6564.425)" fill="#575454"/>
    <path id="Path_30" data-name="Path 30" d="M290.323,92.089c0-.068,0-.134,0-.2v-6.2a3.254,3.254,0,0,0-.935-2.793,3.039,3.039,0,0,0-2.1-.612l-.274,0-.271,0h-5.487V80.864a3.128,3.128,0,0,1,.185-1.221,2.232,2.232,0,0,1,1.129-1.169,2.628,2.628,0,0,1,1.081-.165h.418a1.109,1.109,0,0,0,1.108-1.114V73.7a1.129,1.129,0,0,0-1.114-1.114c-.225,0-.454,0-.676-.007h0c-.225,0-.458-.007-.691-.007h0a10.933,10.933,0,0,0-1.582.1,6.816,6.816,0,0,0-4.344,2.606,7.473,7.473,0,0,0-1.519,4.5V87.72c0,.483,0,.978-.006,1.416v.008c-.006.928-.011,1.888.006,2.837a3.178,3.178,0,0,0,3.113,3.174c.191,0,.4,0,.637,0h7.7c.108,0,.218,0,.325,0s.235,0,.355,0a3.34,3.34,0,0,0,1.505-.281,2.684,2.684,0,0,0,1.436-2.37C290.326,92.37,290.324,92.227,290.323,92.089Zm-11.654.84a2.192,2.192,0,0,1-.553-.051.791.791,0,0,1-.378-.225c-.246-.257-.258-.594-.256-1.123V80.33a7.522,7.522,0,0,1,.146-1.8,4.966,4.966,0,0,1,2.22-3.083,4.485,4.485,0,0,1,1.734-.61,5.581,5.581,0,0,1,.679-.034l.319,0,.332,0h.045v1.3a3.988,3.988,0,0,0-.875.174,4.468,4.468,0,0,0-2.333,1.817,6.106,6.106,0,0,0-.721,3.559c0,.11,0,.219,0,.329V83.4a1.129,1.129,0,0,0,1.114,1.114H287.6c.044,0,.1,0,.142,0a.362.362,0,0,1,.152.038l.033.023.02.019.012.011.012.011.015.021,0,.006.016.021a.709.709,0,0,1,.086.361c0,1.212,0,2.442,0,3.632v.011q0,.913,0,1.826v1.98c0,.156-.08.415-.293.451a.9.9,0,0,1-.113.005l-.116,0-.134,0h-8.769Z" transform="translate(-463.324 6564.425)" fill="#575454"/>
  </g>
</svg>
