<svg xmlns="http://www.w3.org/2000/svg" width="32" height="27.492" viewBox="0 0 32 27.492">
  <g id="home" transform="translate(205 -6342)">
    <path id="Path_15" data-name="Path 15" d="M21.5,21.282V37.468H39.673V21.282L30.571,15Z" transform="translate(-219.633 6329.62)" fill="none"/>
    <path id="Path_16" data-name="Path 16" d="M31.622,17.362c-.032-.032-.064-.032-.1-.064L16.718,7.041a1.155,1.155,0,0,0-1.346,0L.564,17.3a1.072,1.072,0,0,0-.481.8,1.177,1.177,0,0,0,1.795,1.154l2.692-1.859V33.132a1.2,1.2,0,0,0,1.186,1.186H26.27a1.2,1.2,0,0,0,1.186-1.186V17.362l2.692,1.859A1.184,1.184,0,0,0,31.815,19,1.145,1.145,0,0,0,31.622,17.362Zm-6.507-1.635V31.914H6.942V15.727l9.071-6.282Z" transform="translate(-205.075 6335.175)" fill="#575454"/>
  </g>
</svg>
