<svg xmlns="http://www.w3.org/2000/svg" width="32" height="21.026" viewBox="0 0 32 21.026">
  <g id="portfolio" transform="translate(205 -6529)">
    <path id="Path_21" data-name="Path 21" d="M44.23,40.9a2.83,2.83,0,1,0,2.83,2.83A2.83,2.83,0,0,0,44.23,40.9Z" transform="translate(-233.23 6495.767)" fill="none"/>
    <path id="Path_22" data-name="Path 22" d="M33.8,38.631A5.331,5.331,0,1,0,39.131,33.3,5.329,5.329,0,0,0,33.8,38.631Zm5.331,2.863a2.83,2.83,0,1,1,2.83-2.83A2.83,2.83,0,0,1,39.131,41.493Z" transform="translate(-228.131 6500.866)" fill="#575454"/>
    <path id="Path_23" data-name="Path 23" d="M32.807,26.517a23.219,23.219,0,0,0-3.192-3.258h0a1.324,1.324,0,0,0-1.81.1,1.38,1.38,0,0,0,.165,1.876,21.578,21.578,0,0,1,2.9,2.863c-1.547,1.876-7.14,8.029-13.491,8.029S5.431,30.005,3.884,28.1c1.547-1.876,7.14-8.029,13.491-8.029a11.871,11.871,0,0,1,7.5,2.632,1.378,1.378,0,0,0,1.876-.2,1.352,1.352,0,0,0-.329-1.81A14.966,14.966,0,0,0,17.375,17.6c-7.239,0-13.195,6.252-15.432,8.917a2.527,2.527,0,0,0,0,3.192c2.238,2.7,8.193,8.917,15.432,8.917s13.195-6.252,15.432-8.917A2.527,2.527,0,0,0,32.807,26.517Z" transform="translate(-206.375 6511.4)" fill="#575454"/>
  </g>
</svg>
