<svg xmlns="http://www.w3.org/2000/svg" width="32" height="32" viewBox="0 0 32 32">
  <g id="settings" transform="translate(205 -6465)">
    <path id="settings-2" data-name="settings" d="M34.251,17.189h-.885a12.766,12.766,0,0,0-1.133-2.69l.6-.673a2.516,2.516,0,0,0,.743-1.805,2.757,2.757,0,0,0-.743-1.841L31.349,8.694a2.516,2.516,0,0,0-1.805-.743,2.458,2.458,0,0,0-1.805.743l-6.159,6.124a1.307,1.307,0,0,0,.46,2.195l.212.071A3.787,3.787,0,0,1,24.588,19.7a3.978,3.978,0,0,1-.389,3.044,3.9,3.9,0,0,1-2.372,1.876,3.978,3.978,0,0,1-3.044-.389,3.874,3.874,0,0,1-1.876-2.407,3.919,3.919,0,0,1,1.274-4.106,1.3,1.3,0,0,0,.142-1.876,1.371,1.371,0,0,0-1.876-.142,6.76,6.76,0,0,0-2.124,6.9,6.626,6.626,0,0,0,3.115,4.035,6.8,6.8,0,0,0,5.062.6,6.626,6.626,0,0,0,4.035-3.115,6.782,6.782,0,0,0,.6-5.062,6.312,6.312,0,0,0-2.442-3.575l3.469-3.5,1.31-1.274,1.345,1.345-1.274,1.274a1.335,1.335,0,0,0-.142,1.664,11.074,11.074,0,0,1,1.558,3.752,1.323,1.323,0,0,0,1.274,1.062h1.841V21.72H32.234a1.323,1.323,0,0,0-1.274,1.062A9.728,9.728,0,0,1,29.4,26.535a1.25,1.25,0,0,0,.142,1.664l1.274,1.31-1.345,1.345L28.2,29.579a1.335,1.335,0,0,0-1.664-.142,11.074,11.074,0,0,1-3.752,1.558,1.323,1.323,0,0,0-1.062,1.274V34.11H19.809V32.269a1.323,1.323,0,0,0-1.062-1.274,9.728,9.728,0,0,1-3.752-1.558,1.25,1.25,0,0,0-1.664.142l-1.31,1.274-1.345-1.345,1.274-1.274a1.335,1.335,0,0,0,.142-1.664,11.074,11.074,0,0,1-1.558-3.752A1.323,1.323,0,0,0,9.26,21.756H7.419V19.844H9.26a1.323,1.323,0,0,0,1.274-1.062,9.728,9.728,0,0,1,1.558-3.752,1.25,1.25,0,0,0-.142-1.664l-1.274-1.31,1.345-1.345L13.3,11.986a1.335,1.335,0,0,0,1.664.142,11.074,11.074,0,0,1,3.752-1.558A1.323,1.323,0,0,0,19.773,9.3V7.455H21.72V9.3a1.308,1.308,0,0,0,1.345,1.274,1.368,1.368,0,0,0,1.345-1.345V7.349A2.561,2.561,0,0,0,21.862,4.8H19.738a2.561,2.561,0,0,0-2.549,2.549v.885A13.6,13.6,0,0,0,14.5,9.366l-.637-.637a2.607,2.607,0,0,0-3.646,0L8.729,10.216a2.607,2.607,0,0,0,0,3.646l.637.637a13.6,13.6,0,0,0-1.133,2.69H7.349A2.561,2.561,0,0,0,4.8,19.738v2.124a2.561,2.561,0,0,0,2.549,2.549h.885A13.6,13.6,0,0,0,9.366,27.1l-.637.637a2.607,2.607,0,0,0,0,3.646l1.487,1.487a2.607,2.607,0,0,0,3.646,0l.637-.637a13.6,13.6,0,0,0,2.69,1.133v.885A2.561,2.561,0,0,0,19.738,36.8h2.124a2.561,2.561,0,0,0,2.549-2.549v-.885a12.766,12.766,0,0,0,2.69-1.133l.637.637a2.607,2.607,0,0,0,3.646,0l1.487-1.487a2.607,2.607,0,0,0,0-3.646l-.637-.637a13.6,13.6,0,0,0,1.133-2.69h.885A2.561,2.561,0,0,0,36.8,21.862V19.738A2.538,2.538,0,0,0,34.251,17.189Z" transform="translate(-209.8 6460.2)" fill="#575454"/>
  </g>
</svg>
