<?xml version="1.0" encoding="utf-8"?>
<!-- Generator: Adobe Illustrator 23.0.2, SVG Export Plug-In . SVG Version: 6.00 Build 0)  -->
<svg version="1.1" id="Layer_1" xmlns="http://www.w3.org/2000/svg" xmlns:xlink="http://www.w3.org/1999/xlink" x="0px" y="0px"
	 viewBox="0 0 43.8 83.3" style="enable-background:new 0 0 43.8 83.3;" xml:space="preserve">
<style type="text/css">
	.st0{enable-background:new    ;}
	.st1{fill:#FFFFFF;}
	.st2{fill-rule:evenodd;clip-rule:evenodd;fill:#ED2654;}
	.st3{fill:#ED2654;}
</style>
<g id="Group_3" transform="translate(-16 -11)">
	<g class="st0">
		<path class="st1" d="M27.6,91.4c0,1-0.8,1.9-1.9,1.9h-2.9c-1,0-1.9-0.8-1.9-1.9c0-0.6,0.3-1.2,0.8-1.5c-0.2-0.2-0.2-0.5-0.2-0.7
			c0-0.4,0.2-0.7,0.4-0.9c-0.6-0.6-1-1.5-1-2.4c0-1.8,1.5-3.3,3.3-3.3c1,0,1.9,0.5,2.5,1.2v-1.2h0.8v3.3c0,1.8-1.5,3.3-3.3,3.3
			c-0.6,0-1.2-0.2-1.6-0.4c-0.2,0-0.3,0.2-0.3,0.4c0,0.2,0.2,0.4,0.4,0.4h0.1h0.3h2.6C26.7,89.5,27.6,90.4,27.6,91.4z M24.2,88.4
			c1.4,0,2.5-1.1,2.5-2.5c0-1.4-1.1-2.5-2.5-2.5s-2.5,1.1-2.5,2.5C21.7,87.2,22.8,88.4,24.2,88.4z M26.8,91.4c0-0.6-0.5-1.1-1.1-1.1
			h-2.6h-0.3c-0.6,0-1.1,0.5-1.1,1.1s0.5,1.1,1.1,1.1h2.9C26.3,92.5,26.8,92,26.8,91.4z"/>
		<path class="st1" d="M29.6,81.2c0-0.2,0.2-0.4,0.4-0.4s0.4,0.2,0.4,0.4c0,0.2-0.2,0.4-0.4,0.4S29.6,81.4,29.6,81.2z M29.6,82.4
			h0.8V89h-0.8V82.4z"/>
		<path class="st1" d="M32.6,89v-9h0.8v9H32.6z"/>
		<path class="st1" d="M42,85.7c0,1.8-1.5,3.3-3.3,3.3c-1,0-1.9-0.5-2.5-1.2V89h-0.8v-3c0-0.1,0-0.2,0-0.3c0-0.1,0-0.2,0-0.3v-5.6
			h0.8v3.7c0.6-0.7,1.5-1.2,2.5-1.2C40.5,82.4,42,83.9,42,85.7z M41.2,85.7c0-1.4-1.1-2.5-2.5-2.5c-1.3,0-2.4,1-2.5,2.3V86
			c0.1,1.3,1.2,2.3,2.5,2.3C40.1,88.3,41.2,87.1,41.2,85.7z"/>
		<path class="st1" d="M50,85.7C50,85.7,50,85.7,50,85.7c0,0,0,0.1,0,0.1h-0.8h-2.3h-2.5c0.1,1.3,1.2,2.4,2.5,2.4
			c0.7,0,1.3-0.3,1.8-0.7l0.6,0.6c-0.6,0.6-1.4,1-2.3,1c-1.8,0-3.3-1.5-3.3-3.3s1.4-3.3,3.2-3.3c1.6,0,2.8,1.1,3.1,2.7
			C50,85.3,50,85.5,50,85.7z M44.5,85.1h4.7c-0.3-1.1-1.2-1.9-2.3-1.9C45.6,83.2,44.8,84,44.5,85.1z"/>
		<path class="st1" d="M54,82.4v0.8c-0.9,0-1.6,0.7-1.6,1.6h0v4.3h-0.8v-6.3h0.8V83C52.8,82.6,53.4,82.4,54,82.4z"/>
		<path class="st1" d="M57.7,83.2h-1.1v5.9h-0.8v-9.2h0.8v2.5h1.1V83.2z"/>
	</g>
	<g id="Group_2" transform="translate(-58.095 -20.284)">
		<g id="Path_24">
			<path class="st2" d="M92.8,44.9c8.7,0,15.8,7.1,15.8,15.8s-7.1,15.8-15.8,15.8S77,69.4,77,60.7S84.1,44.9,92.8,44.9L92.8,44.9z
				 M92.8,54.8c-3.3,0-5.9,2.7-5.9,5.9c0,3.3,2.7,5.9,5.9,5.9c3.3,0,5.9-2.7,5.9-5.9l0,0C98.8,57.5,96.1,54.8,92.8,54.8z"/>
		</g>
		<g id="Ellipse_1">
			<circle class="st3" cx="110.6" cy="41.1" r="7"/>
		</g>
		<g id="Rectangle_4">
			<path class="st3" d="M82.7,82.7l18.2-4.4c3.4-0.8,6.8,1.3,7.6,4.7l0,0c0.8,3.4-1.3,6.8-4.7,7.6L85.6,95c-3.4,0.8-6.8-1.3-7.6-4.7
				l0,0C77.3,86.9,79.3,83.5,82.7,82.7z"/>
		</g>
	</g>
</g>
</svg>
