<svg height='100px' width='100px'  fill="#000000" xmlns="http://www.w3.org/2000/svg" xmlns:xlink="http://www.w3.org/1999/xlink" version="1.1" x="0px" y="0px" viewBox="0 0 100 100" style="enable-background:new 0 0 100 100;" xml:space="preserve"><g><path d="M69,16c-0.55,0-1,0.45-1,1s0.45,1,1,1h10.18c1.56,0,2.82,1.27,2.82,2.82V31c0,0.55,0.45,1,1,1s1-0.45,1-1V20.82   c0-2.66-2.16-4.82-4.82-4.82H69z"></path><path d="M15,32c0.55,0,1-0.45,1-1V20.82c0-1.56,1.27-2.82,2.82-2.82H29c0.55,0,1-0.45,1-1s-0.45-1-1-1H18.82   C16.16,16,14,18.16,14,20.82V31C14,31.55,14.45,32,15,32z"></path><path d="M18.82,86H29c0.55,0,1-0.45,1-1s-0.45-1-1-1H18.82C17.27,84,16,82.73,16,81.18V71c0-0.55-0.45-1-1-1s-1,0.45-1,1v10.18   C14,83.84,16.16,86,18.82,86z"></path><path d="M69,86h10.18c2.66,0,4.82-2.16,4.82-4.82V71c0-0.55-0.45-1-1-1s-1,0.45-1,1v10.18c0,1.56-1.27,2.82-2.82,2.82H69   c-0.55,0-1,0.45-1,1S68.45,86,69,86z"></path><path d="M35.3,52.32c0.01-0.01,0.01-0.01,0.02-0.02c0.02-0.02,0.03-0.04,0.04-0.07c0.18-0.25,0.35-0.49,0.49-0.74   c1.54-2.62,2.42-5.5,2.92-8.47c0.49-2.92,1.45-5.54,3.81-7.48c0.88-0.73,1.04-1.39,0.51-2.03c-0.54-0.66-1.36-0.68-2.2,0.05   c-2.23,1.94-3.73,4.32-4.3,7.26c-0.09,0.45-0.17,0.9-0.26,1.34c-0.03,0.14-0.06,0.27-0.09,0.41c-0.07,0.32-0.13,0.63-0.2,0.94   c-0.04,0.17-0.08,0.34-0.12,0.51c-0.07,0.28-0.13,0.56-0.2,0.83c-0.05,0.18-0.1,0.37-0.15,0.55c-0.07,0.26-0.15,0.52-0.23,0.78   c-0.06,0.19-0.12,0.38-0.19,0.56c-0.08,0.25-0.17,0.5-0.27,0.74c-0.07,0.19-0.15,0.38-0.23,0.56c-0.1,0.24-0.2,0.48-0.32,0.72   c-0.09,0.19-0.18,0.37-0.27,0.55c-0.12,0.23-0.25,0.46-0.38,0.69c-0.1,0.18-0.21,0.36-0.32,0.54c-0.22,0.34-0.44,0.69-0.69,1.02   c0.46,0.64,0.93,1.27,1.57,2.15C34.63,53.2,34.98,52.76,35.3,52.32z"></path><path d="M67.03,61.18c0.32-0.75,0.03-1.38-0.71-1.75c-0.48-0.24-0.99-0.41-1.47-0.63c-4.17-1.91-8.29-3.93-11.68-7.09   c-1.12-1.05-2.08-2.35-2.84-3.69c-0.79-1.41-0.34-2.86,0.69-4.09c1-1.18,2.29-1.48,3.71-1.04c1.01,0.31,2.11,0.61,2.93,1.23   c2.71,2.05,5.33,4.22,7.97,6.37c0.79,0.65,1.43,0.71,2.03,0.11c0.6-0.61,0.58-1.27-0.23-1.98c-2.06-1.8-4.06-3.71-6.29-5.28   c-1.72-1.21-3.66-2.27-5.67-2.88c-4.19-1.27-8.23,1.92-8.06,6.09c0.1,2.37,1.23,4.68,3.44,6.68c4.24,3.84,9.27,6.4,14.5,8.58   C66.08,62.11,66.73,61.9,67.03,61.18z"></path><path d="M38.5,27.54c-4.55,4.08-5.47,8.5-5.51,8.66c-0.42,1.7-0.85,3.41-1.13,5.13c-0.13,0.82,0.54,1.18,1.29,1.19   c0.74,0.01,1.16-0.41,1.23-1.17c0.47-4.66,2.63-8.51,5.79-11.83c1.94-2.03,4.3-3.47,7.15-3.69c5.98-0.46,11.23,1.2,15.4,5.71   c0.6,0.65,1.17,1.31,1.94,2.18c1.28,0.91,3.28-0.09,1.89-1.66c-0.8-0.93-1.48-1.78-2.23-2.57c-4.21-4.45-9.48-6.3-15.5-6.32   C44.76,23.15,41.36,24.74,38.5,27.54z"></path><path d="M35.42,60.32c2.41-1.52,4.37-3.48,5.84-5.94c1.33-2.21,1.59-4.72,2.17-7.14c0.63-2.61,1.43-5.15,3.16-7.29   c1.53-1.89,3.49-2.47,5.83-1.82c0.32,0.09,0.64,0.21,0.97,0.26c0.7,0.11,1.3-0.08,1.5-0.83c0.2-0.74-0.05-1.37-0.81-1.6   c-1.08-0.33-2.19-0.56-2.8-0.71c-2.77,0.04-4.68,0.87-6.21,2.52c-2.59,2.81-3.77,6.31-4.35,9.96c-0.72,4.52-2.86,7.98-6.71,10.41   c-0.85,0.54-1.05,1.25-0.61,1.93C33.83,60.74,34.57,60.86,35.42,60.32z"></path><path d="M65.72,65.43c0.05-0.66-0.49-1.1-1.27-1.45c-4.74-2.08-9.42-4.29-13.69-7.26c-2.86-1.98-5.11-1.86-7.66,0.5   c-0.44,0.41-0.82,0.87-1.22,1.33c-1.68,1.93-2.97,4.2-5.24,5.6c-0.29,0.18-0.44,0.91-0.34,1.31c0.07,0.28,0.7,0.62,1.03,0.58   c0.6-0.09,1.15-0.44,1.73-0.69c0.11-0.11,0.33-0.04,0.43-0.12c0.43-0.37,0.85-0.75,1.22-1.18c1.39-1.62,2.71-3.31,4.15-4.88   c1.46-1.59,2.47-1.7,4.2-0.46c3.61,2.58,7.57,4.51,11.56,6.39c1.05,0.49,2.11,0.96,3.16,1.43C63.77,66.42,64.94,67.63,65.72,65.43z   "></path><path d="M47.01,28.8c-0.1,0-0.2,0-0.3,0c-1.26-0.02-1.83,0.38-1.83,1.3c0,0.86,0.51,1.21,1.76,1.27c3.52,0.19,6.84,1.1,9.94,2.78   c3.74,2.03,6.59,4.95,8.64,8.68c0.2,0.36,0.5,0.85,0.83,0.92c0.45,0.1,1.1,0.02,1.45-0.26c0.57-0.45,0.42-1.13,0.08-1.73   c-1.38-2.46-3.08-4.64-5.16-6.57C58.05,31.16,52.81,29.33,47.01,28.8z"></path><path d="M60.19,71.72c0.65-0.62,0.66-1.36-0.19-2.06c-2.08-1.72-4.17-3.44-6.38-4.99c-1.51-1.06-3.28-1.64-5.3-1.74   c-0.2,0.02-0.53,0.04-0.86,0.09c-1.71,0.24-2.92,1.22-3.87,2.6c-1.11,1.62-2.13,3.32-3.85,4.43c-0.94,0.61-1.07,1.26-0.53,2   c0.49,0.66,1.11,0.69,2.01,0.1c1.94-1.25,3.19-3.1,4.43-4.97c1.01-1.53,2.32-1.99,4.07-1.45c0.6,0.19,1.19,0.44,1.75,0.73   c2.53,1.29,4.67,3.1,6.7,5.04C58.97,72.25,59.57,72.31,60.19,71.72z"></path><path d="M68.16,55.03c-0.15-0.17-0.37-0.59-0.72-0.83c-0.66-0.44-1.4-0.77-2.09-1.17c-3.32-1.91-6.69-3.76-9.56-6.36   c-0.98-0.89-1.59-1.01-2.2-0.34c-0.59,0.64-0.45,1.38,0.43,2.25c0.14,0.14,0.28,0.29,0.44,0.4c2.5,1.71,4.98,3.45,7.52,5.1   c1.34,0.87,2.77,1.61,4.2,2.32C67.21,56.92,68.19,56.33,68.16,55.03z"></path><path d="M45.93,72.3c-0.63,0.81-1.35,1.55-2.07,2.28c-0.69,0.7-0.72,1.84,0.13,2.18c0.44,0.17,1.24,0.04,1.6-0.27   c0.96-0.86,1.81-1.86,2.63-2.86c0.63-0.76,1.29-0.88,2.09-0.37c0.45,0.29,0.91,0.58,1.29,0.94c0.73,0.68,1.37,1.47,2.14,2.1   c0.32,0.26,0.94,0.38,1.33,0.26c0.39-0.12,0.65-0.62,0.99-0.98c-0.26-0.51-0.37-0.94-0.64-1.19c-1.16-1.09-2.26-2.28-3.57-3.16   C49.56,69.67,47.63,70.13,45.93,72.3z"></path></g></svg>